<svg width="100" height="100" viewBox="0 0 100 100" fill="none" xmlns="http://www.w3.org/2000/svg">
<rect x="6.10352e-05" width="100" height="100" rx="10" fill="black"/>
<path d="M33.3269 10C20.4636 10 10.0001 20.4732 10.0001 33.3398V66.6732C10.0001 79.5365 20.4733 90 33.3399 90H66.6733C79.5366 90 90.0001 79.5268 90.0001 66.6602V33.3268C90.0001 20.4635 79.5269 10 66.6603 10H33.3269ZM73.3334 23.3333C75.1734 23.3333 76.6668 24.8267 76.6668 26.6667C76.6668 28.5067 75.1734 30 73.3334 30C71.4934 30 70.0001 28.5067 70.0001 26.6667C70.0001 24.8267 71.4934 23.3333 73.3334 23.3333ZM50.0001 30C61.0301 30 70.0001 38.97 70.0001 50C70.0001 61.03 61.0301 70 50.0001 70C38.9701 70 30.0001 61.03 30.0001 50C30.0001 38.97 38.9701 30 50.0001 30ZM50.0001 36.6667C46.4639 36.6667 43.0725 38.0714 40.572 40.5719C38.0715 43.0724 36.6668 46.4638 36.6668 50C36.6668 53.5362 38.0715 56.9276 40.572 59.4281C43.0725 61.9286 46.4639 63.3333 50.0001 63.3333C53.5363 63.3333 56.9277 61.9286 59.4282 59.4281C61.9287 56.9276 63.3334 53.5362 63.3334 50C63.3334 46.4638 61.9287 43.0724 59.4282 40.5719C56.9277 38.0714 53.5363 36.6667 50.0001 36.6667Z" fill="white"/>
</svg>
